# xmcd
#
# Track frame offsets:
#	150
#	13753
#	30448
#	44670
#	57330
#	75393
#	89650
#	102103
#	114013
#	133313
#	147543
#	170730
#	189495
#	209061
#	229889
#	253148
#	267766
#
# Disc length: 3800 seconds
#
# Revision: 1
# Processed by: cddbd v1.5.1PL0 Copyright (c) Steve Scherf et al.
# Submitted via: audiograbber 1.83.01
#
DISCID=f80ed611
DTITLE=Norah Jones - Feels Like Home #2/2
DYEAR=2004
DGENRE=Jazz
TTITLE0=Feelin The Same Way
TTITLE1=Cold Cold Heart
TTITLE2=The Nearness Of You
TTITLE3=Long Day Is Over
TTITLE4=Shoot The Moon
TTITLE5=Lone Star
TTITLE6=Painter Song
TTITLE7=Turn Me On
TTITLE8=I've Got To See You Again
TTITLE9=One Flight Down
TTITLE10=New York City
TTITLE11=Strange Transmissions
TTITLE12=Deceptively Yours
TTITLE13=All Your Love
TTITLE14=Heart Of Mine
TTITLE15=Things You Don't Have To Do
TTITLE16=New York City (radio edit)
EXTD=
EXTT0=
EXTT1=
EXTT2=
EXTT3=
EXTT4=
EXTT5=
EXTT6=
EXTT7=
EXTT8=
EXTT9=
EXTT10=
EXTT11=
EXTT12=
EXTT13=
EXTT14=
EXTT15=
EXTT16=
PLAYORDER=
